<svg xmlns="http://www.w3.org/2000/svg" viewBox="34 175.315 1040.291 676.386"><g transform="translate(98.471 217.704) scale(.9864)"><rect width="413.72" height="359.38" x="535.03" y="-20.89" fill="#FFF" rx="30.05" ry="30.05"/><path fill="#FFF" d="m566.55,5.56c-.37,0-.74-.14-1.02-.42l-7.97-7.97c-.57-.57-.57-1.48,0-2.05.57-.57,1.48-.57,2.05,0l7.97,7.97c.57.57.57,1.48,0,2.05-.28.28-.65.42-1.02.42Z"/><path fill="#FFF" d="m558.58,5.56c-.37,0-.74-.14-1.02-.42-.57-.57-.57-1.48,0-2.05l7.97-7.97c.57-.57,1.48-.57,2.05,0,.57.57.57,1.48,0,2.05l-7.97,7.97c-.28.28-.65.42-1.02.42Z"/><rect width="413.72" height="359.38" x="27.84" y="265.31" fill="#FFF" rx="30.05" ry="30.05"/><path fill="#FFF" d="m59.36,291.75c-.37,0-.74-.14-1.02-.42l-7.97-7.97c-.57-.57-.57-1.48,0-2.05.57-.57,1.48-.57,2.05,0l7.97,7.97c.57.57.57,1.48,0,2.05-.28.28-.65.42-1.02.42Z"/><path fill="#FFF" d="m51.39,291.75c-.37,0-.74-.14-1.02-.42-.57-.57-.57-1.48,0-2.05l7.97-7.97c.57-.57,1.48-.57,2.05,0,.57.57.57,1.48,0,2.05l-7.97,7.97c-.28.28-.65.42-1.02.42Z"/></g><g transform="rotate(-16.969 850.785 -392.293) scale(.9863)"><path fill="#f2f2f2" d="m178.12,51.26h-86.46c-20.38,0-36.9,16.42-36.9,36.68v95.76c0,30.87,15.02-22.9,38.06-22.9h85.29c20.38,0,36.9-16.42,36.9-36.68v-36.17c0-20.26-16.52-36.68-36.9-36.68Z"/><path fill="#f90065" d="m136.21,69.08c15.83,0,24.23,6.69,24.23,17.9,0,18.19-17.41,18.49-17.41,27.74h0c0,2.5-2.04,4.52-4.55,4.52h-12.07c-2.51,0-4.55-2.03-4.55-4.52v-5.11c0-12.3,13.45-14.95,13.45-18.69,0-1.08-.99-1.77-2.87-1.77-3.18,0-7.95,1.37-12.06,3.29-2.34,1.1-5.12,0-6.12-2.37l-3.97-9.51c-.94-2.24.08-4.79,2.28-5.84,7.37-3.52,15.74-5.64,23.62-5.64Zm7.32,63.09h0c0,4.26-3.48,7.72-7.76,7.72h-6.43c-4.29,0-7.76-3.46-7.76-7.72h0c0-4.26,3.48-7.72,7.76-7.72h6.43c4.29,0,7.76,3.46,7.76,7.72Z"/><rect width="93.15" height="1.49" x="92.82" y="159.55" transform="rotate(-.6 139.538 160.207)"/><rect width="1.5" height="95.6" x="54.01" y="88.11"/><path d="m135.77,140.63h-6.43c-4.7,0-8.52-3.8-8.52-8.47s3.82-8.47,8.52-8.47h6.43c4.7,0,8.52,3.8,8.52,8.47s-3.82,8.47-8.52,8.47Zm-6.43-15.44c-3.87,0-7.01,3.13-7.01,6.97s3.15,6.97,7.01,6.97h6.43c3.87,0,7.01-3.13,7.01-6.97s-3.15-6.97-7.01-6.97h-6.43Zm9.15-5.21h-12.07c-2.92,0-5.3-2.37-5.3-5.27v-5.11c0-8.31,5.95-12.48,9.88-15.24,1.92-1.34,3.57-2.5,3.57-3.44s-1.48-1.02-2.12-1.02c-2.96,0-7.57,1.26-11.74,3.22-1.31.61-2.78.67-4.14.14-1.37-.52-2.43-1.55-2.99-2.9l-3.97-9.51c-1.08-2.59.08-5.57,2.65-6.8,7.71-3.68,16.22-5.71,23.95-5.71,15.88,0,24.99,6.8,24.99,18.64,0,10.99-6.19,15.71-11.17,19.5-3.49,2.66-6.24,4.76-6.24,8.23,0,2.91-2.38,5.27-5.3,5.27Zm-6.03-31.59c3.36,0,3.62,1.93,3.62,2.52,0,1.71-1.86,3.02-4.21,4.66-3.9,2.74-9.25,6.48-9.25,14.02v5.11c0,2.08,1.7,3.78,3.8,3.78h12.07c2.1,0,3.8-1.69,3.8-3.78,0-4.22,3.17-6.63,6.83-9.42,4.96-3.78,10.58-8.06,10.58-18.31,0-11.06-8.34-17.15-23.48-17.15-7.51,0-15.79,1.98-23.3,5.57-1.85.88-2.69,3.03-1.92,4.88l3.97,9.51c.4.97,1.16,1.7,2.14,2.08.97.37,2.02.34,2.96-.1,4.36-2.04,9.22-3.36,12.38-3.36Z"/></g><g transform="rotate(12.926 -2347.738 3575.956) scale(.9863)"><path fill="#f2f2f2" d="m178.12,50.76h-86.46c-20.38,0-36.9,16.54-36.9,36.94v96.43c0,31.09,15.02-23.06,38.06-23.06h85.29c20.38,0,36.9-16.54,36.9-36.94v-36.42c0-20.4-16.52-36.94-36.9-36.94Z"/><path fill="#FF8066" d="m152.14,105.96l16.78-16.8c3.86-3.87,3.86-10.14,0-14-3.86-3.87-10.12-3.87-13.99,0l-16.78,16.8-16.78-16.8c-3.86-3.87-10.12-3.87-13.99,0-3.86,3.87-3.86,10.14,0,14l16.78,16.8-16.78,16.8c-3.86,3.87-3.86,10.14,0,14,1.93,1.93,4.46,2.9,6.99,2.9s5.06-.97,6.99-2.9l16.78-16.8,16.78,16.8c1.93,1.93,4.46,2.9,6.99,2.9s5.06-.97,6.99-2.9c3.86-3.87,3.86-10.14,0-14l-16.78-16.8Z"/><rect width="93.15" height="1.5" x="92.82" y="159.82" transform="rotate(-.6 138.588 159.247)"/><rect width="1.5" height="96.27" x="54.01" y="87.87"/><path d="m161.93,140.41c-2.84,0-5.52-1.11-7.52-3.12l-16.25-16.27-16.25,16.27c-2.01,2.01-4.68,3.12-7.52,3.12s-5.51-1.11-7.52-3.12c-4.15-4.15-4.15-10.91,0-15.07l16.25-16.27-16.25-16.27c-4.15-4.15-4.15-10.91,0-15.07,4.15-4.15,10.9-4.15,15.05,0l16.25,16.27,16.25-16.27c2.01-2.01,4.68-3.12,7.52-3.12h0c2.84,0,5.51,1.11,7.52,3.12,4.15,4.15,4.15,10.91,0,15.07l-16.25,16.27,16.25,16.27c4.15,4.15,4.15,10.91,0,15.07-2.01,2.01-4.68,3.12-7.52,3.12Zm-23.77-21.52l17.31,17.33c1.73,1.73,4.02,2.68,6.46,2.68s4.74-.95,6.46-2.68c3.56-3.57,3.56-9.37,0-12.94l-17.31-17.33,17.31-17.33c3.56-3.57,3.56-9.37,0-12.94-1.73-1.73-4.02-2.68-6.46-2.68h0c-2.44,0-4.73.95-6.46,2.68l-17.31,17.33-17.31-17.33c-3.56-3.57-9.36-3.57-12.92,0-3.56,3.57-3.56,9.37,0,12.94l17.31,17.33-17.31,17.33c-3.56,3.57-3.56,9.37,0,12.94,1.73,1.73,4.02,2.68,6.46,2.68s4.74-.95,6.46-2.68l17.31-17.33Z"/></g><g transform="translate(-2.998 353.416) scale(.64483)"><path fill="#7c4b33" d="m754.49,471.41s11.6-47.72,34.79-59.33c17.93-8.97,32.79-29.52,38.6-38.37,2.13-3.25,6.01-4.94,9.81-4.15,6.19,1.28,13.56,6.6,9.57,25.76-6.44,30.95-32.21,42.56-19.33,41.27s47.74-14.42,61.85-24.51c18.04-12.9,25.68-25.51,47.68-27.09,18.04-1.29,9.02,16.77,9.02,16.77,0,0,16.75-6.45,23.19,0,6.44,6.45-1.29,14.19-11.6,20.64,0,0,27.06,5.16-2.58,27.09,0,0,16.75,0,5.15,14.19-11.6,14.19-28.35,34.82-28.35,34.82,0,0-33.5,21.93-57.99,28.37-16.93,4.46-43.09,13.23-57.63,18.22-7.69,2.64-16,2.86-23.79.53-13.07-3.9-32.53-11.87-42.28-26.5-15.46-23.22,3.87-47.72,3.87-47.72Z"/><path fill="#FF9800" d="m691.39,742.77c-4.72,1.35-9.69,2.08-14.83,2.08H122.15l40.13-349.7c1.25-10.98,8.56-20.33,18.89-24.2l62.9-23.53,1.69-.63.66-.03,180.68-6.95,118.72,39.87,129.31,331.56s6.95,12.78,16.27,31.52Z"/><path fill="#7c4b33" d="m389.58,304.7l26.09,42.06s39.08,43.91-31.11,40.16c-70.19-3.75-97.42-47.41-97.42-47.41,0,0,40.74-49.23,35.82-74.35l66.62,39.54Z"/><polygon fill="#f2f2f2" points="443.65 344.99 444.96 538.42 445.67 641.74 391.98 562.54 245.75 346.8 284.16 337.27 372.34 368.66 374.07 369.18 380.76 363.78 420.28 331.76 443.65 344.99"/><path fill="#FF9800" d="m835.09,551.8c-1.71,1.26-3.5,2.45-5.37,3.55l-49.66,39.05-130.74,102.82c-10,5.89-21.31,8.93-32.7,8.93-5.67,0-11.37-.75-16.93-2.27-16.76-4.57-38.71-46.68-47.14-61.9l-97.93-176.7c-17.27-31.14-6.03-70.4,25.09-87.67,31.11-17.28,70.33-6.04,87.58,25.11l65.86,118.83,75.82-44.7,49.35-29.1,76.77,104.05Z"/><path fill="#f90065" d="m445.23,537.13l.7,103.32-53.69-79.2c-1.01-55.53-5.03-131.83-5.03-131.83l17.71-3.91,40.3,111.62Z"/><polygon fill="#f90065" points="364.34 396.07 387.22 429.41 404.92 425.5 411.1 377.92 388.27 360.82 374.16 370.18 364.34 396.07"/><polygon fill="#f2f2f2" points="284.6 337.13 305.64 307.42 382.58 365.38 364.73 447.82 284.6 337.13"/><polygon fill="#f2f2f2" points="433.56 430.2 382.58 365.38 417.69 308.07 443.94 345.01 433.56 430.2"/><path d="m430.89,240.38s19.34-23.27,3.95-40.99c0,0,14.46-40.86-32.33-41.21,0,0-10.9-19.94-30.34-6.16,0,0-29.45-22.47-49.15,17.77,0,0-35.9-7.35-26.57,36.64,0,0-42.41-1.33-23.48,42.31,0,0-22.67,20.52,1.32,40.15,0,0,4.71,35.1,33.06,25.71,0,0,9.69,34.01,29.42,19.49,19.73-14.52,94.11-93.7,94.11-93.7Z"/><path fill="#7c4b33" d="m296.44,258.08c3.22-7.32,9.91-12.15,17.72-13.75-.52-34.52,19.31-58.14,48.95-61.38,32.09-3.51,63.5,18.17,67.78,57.43,4.29,39.25,3.8,71.51-28.28,75.02-17.97,1.97-42.03-5.5-60.49-19.35-10.29,1.36-22.34-.16-30.07-3.57-14.22-6.27-21.21-21.67-15.61-34.4Z"/><path d="m306.38,278.11l-2.17-.75c2.64-7.68,7.61-14.65,14-19.64l1.41,1.82c-6.05,4.72-10.75,11.31-13.25,18.58Z"/><rect width="2.3" height="10.91" x="311.09" y="268.22" transform="rotate(-29.69 312.253 273.675)"/><ellipse cx="373.65" cy="243.6" rx="3.65" ry="5.1" transform="rotate(-6.22 373.581 243.563)"/><ellipse cx="411.24" cy="238.26" rx="3.65" ry="5.1" transform="rotate(-6.22 411.16 238.221)"/><path d="M413.13 264.44c-6.94-1.82-13-6.42-16.62-12.62-3.62-6.2-4.65-13.74-2.82-20.69l2.22.59c-1.68 6.36-.74 13.26 2.58 18.94 3.31 5.68 8.86 9.89 15.21 11.55l-.58 2.23zM416.49 312.46c-3.9 2.13-8.51 3.5-13.76 4.08-18.54 2.03-42.41-5.54-60.93-19.29-10.21 1.26-22.29-.22-30.21-3.71-7.14-3.14-12.76-8.6-15.82-15.35-3.09-6.8-3.22-14.1-.38-20.56 3.14-7.14 9.53-12.28 17.61-14.21-.16-34.12 19.37-58.26 49.98-61.6l.25 2.29c-29.62 3.24-48.43 26.88-47.92 60.22v.95s-.92.19-.92.19c-7.78 1.6-13.94 6.36-16.9 13.08-2.58 5.85-2.44 12.49.37 18.69 2.83 6.24 8.04 11.28 14.66 14.2 7.7 3.39 19.53 4.79 29.45 3.48l.47-.06.38.28c17.85 13.39 41.83 21.08 59.67 19.13 6.07-.66 11.21-2.44 15.27-5.27l1.31 1.88c-.82.57-1.68 1.1-2.58 1.6z"/><path d="m314.18,243.35s32.17,61.96,41.3,75.58c13.24,19.75,43.12,20.57,65.78,8.17,22.65-12.4,9.04-106.34,9.04-106.34l-12.09-2.46c4.52,17.77,12.6,54.47,4.02,56.71,0,0-32.12-9.42-65.42,1.45,0,0-8.9-4.26-24.25-30.91l-18.38-2.21Z"/><path fill="#fff" d="m404.49,277.69l-28.89-.46s9.47,21.82,18.05,19.57c8.58-2.24,10.83-19.11,10.83-19.11Z"/><path d="M395.97 297.1c-.64.35-1.31.62-2.03.81-9.27 2.42-18.39-17.9-19.39-20.23l-.71-1.64 31.96.51-.17 1.28c-.09.66-2.11 15.13-9.66 19.26zm-18.57-18.7c3.1 6.53 10.23 18.78 15.96 17.28 6.42-1.7 9.06-13.01 9.77-16.87l-25.74-.41zM420.89 223.22s-18.14-6.26-16.78-21.73c0 0-8.13 19.18-24.54 13.43 0 0-18.17 29.58-47.87 33.57 0 0-29.88-.82-24.07-26.1 5.81-25.27 24.31-53.45 47.75-53.58 23.44-.13 58.66 14.95 65.89 28.18 7.23 13.23 6.59 28.93 6.59 28.93l-6.97-2.71z"/><polygon points="364.41 451.67 303.78 365.58 305.65 364.26 363.32 446.13 382.31 362.69 434.46 429.49 432.65 430.91 383.48 367.92 364.41 451.67"/><rect width="49.72" height="2.3" x="416.39" y="368.49" transform="rotate(-84.77 441.236 369.635)"/><polygon points="447.09 640.4 445.19 641.7 244.06 347.42 245.75 346.79 246.4 346.77 447.09 640.4"/><path d="m403.52,640.43c-49.39-36.98-130.73-154.74-131.55-155.92l-.36-.52,12.63-29.42-40.91-8.34-15.41-90.03,2.26-.39,15.14,88.48,42.14,8.59-13.24,30.85c5.96,8.6,83.26,119.37,130.67,154.87l-1.38,1.84Z"/><polygon points="467.71 637.42 465.48 636.83 507.72 476.33 473.57 462.42 499.81 439.27 472.17 359.85 474.34 359.09 502.48 439.97 477.87 461.69 510.46 474.96 510.2 475.94 467.71 637.42"/><rect width="2.3" height="254.9" x="615.37" y="437.02" transform="rotate(-21.17 616.635 564.565)"/><path d="m455.41,693.11c-5.25,1.16-10.47-2.17-11.63-7.43-1.16-5.26,2.17-10.48,7.42-11.64s10.47,2.17,11.63,7.43c1.16,5.26-2.17,10.48-7.42,11.64Zm-3.71-16.82c-4.02.89-6.56,4.88-5.67,8.9s4.87,6.57,8.89,5.68,6.56-4.88,5.67-8.9-4.87-6.57-8.89-5.68Z"/><path fill="#7c4b33" d="m387.25,645.53l131.43,3.87,60.56,19.35s40.7,27.9,45.1,29.66c12.89,5.16,11.6,25.8,0,24.51,0,0,3.87,20.64-16.75,19.35,0,0-3.87,15.48-20.62,11.61-16.75-3.87-42.52-18.06-42.52-18.06,0,0,42.52,21.93,36.08,28.37-6.44,6.45-7.73,15.48-38.66,0-31.01-15.52-36.08-18.06-36.08-18.06,0,0-46.39,20.64-81.18,10.32-5.91-1.75-11.11-3.28-15.68-4.61-26.41-7.7-46.57-29.63-51.06-56.8-3.19-19.32,1.74-39.35,29.37-49.51Z"/><path fill="#FF9800" d="m223.6,592.65l155.92,36.17-15.45,132.73c-19.08-1.16-245.19-15.48-245.19-15.48-19.7-.9-37.92-10.78-49.42-26.83-11.51-16.03-15.02-36.46-9.57-55.45l82.53-253c9.84-34.22,61.85-55.46,68.09-37.47,12.71,36.65,48.71,99.97,38.86,134.2l-25.77,85.12Z"/><polygon fill="#f2f2f2" points="379.51 628.76 364.05 761.61 429.77 764.19 438.79 640.37 379.51 628.76"/><path d="m223.6,593.94c-.12,0-.25-.02-.37-.06-.68-.21-1.07-.93-.86-1.61l25.77-85.12c.21-.68.93-1.07,1.61-.86.68.21,1.07.93.86,1.61l-25.77,85.12c-.17.56-.68.92-1.23.92Z"/><path d="M438.79 641.66c-.09 0-.18 0-.27-.03l-261.58-56.75c-.7-.15-1.14-.84-.99-1.53.15-.7.84-1.14 1.53-.99l261.58 56.75c.7.15 1.14.84.99 1.53-.13.6-.67 1.02-1.26 1.02zM429.77 765.48s-.05 0-.08 0l-310.55-18.06c-.71-.04-1.25-.65-1.21-1.36.04-.71.63-1.25 1.36-1.21l310.55 18.06c.71.04 1.25.65 1.21 1.36-.04.69-.61 1.22-1.29 1.22z"/><path d="M369.21 719.05s-.1 0-.15 0c-.71-.08-1.21-.72-1.13-1.43l10.31-88.99c.08-.71.72-1.22 1.43-1.13.71.08 1.21.72 1.13 1.43l-10.31 88.99c-.08.66-.63 1.14-1.28 1.14zM332.48 742.26c-7.46 0-13.53-4.92-13.53-10.96s6.07-10.96 13.53-10.96 13.53 4.92 13.53 10.96-6.07 10.96-13.53 10.96zm0-19.35c-6.04 0-10.95 3.76-10.95 8.38s4.91 8.38 10.95 8.38 10.95-3.76 10.95-8.38-4.91-8.38-10.95-8.38zM742.6 607.44c-.88 0-1.74-.08-2.58-.25-3.29-.64-5.85-2.45-7.22-5.11-1.37-2.65-1.36-5.8.02-8.85 1.34-2.95 3.81-5.47 6.98-7.1 3.16-1.63 6.65-2.2 9.83-1.57 3.29.64 5.85 2.45 7.22 5.11 1.37 2.65 1.36 5.8-.02 8.85-1.34 2.95-3.81 5.47-6.98 7.1-2.32 1.2-4.82 1.82-7.24 1.82zm4.44-20.55c-2.01 0-4.1.52-6.06 1.53-2.65 1.37-4.71 3.45-5.81 5.88-1.05 2.32-1.08 4.66-.08 6.6 1 1.94 2.92 3.27 5.42 3.76 2.61.51 5.5.03 8.15-1.34 2.65-1.37 4.71-3.45 5.81-5.88 1.05-2.32 1.08-4.66.08-6.6h0c-1-1.94-2.92-3.27-5.42-3.76-.68-.13-1.38-.2-2.1-.2z"/><path fill="#f2f2f2" d="m835.09,551.8c-1.71,1.26-3.5,2.45-5.37,3.55l-49.66,39.05-71.09-117.55,49.35-29.1,76.77,104.05Z"/><path d="m608.88,538.48c-.44,0-.87-.22-1.11-.63-.36-.61-.16-1.4.45-1.77l146.9-87.7c.61-.36,1.4-.17,1.77.45s.16,1.4-.45,1.77l-146.9,87.7c-.21.12-.43.18-.66.18Z"/><path d="M764.8 570.72c-.44 0-.87-.23-1.11-.63l-54.12-91.57c-.36-.61-.16-1.4.45-1.77.61-.36 1.4-.16 1.77.45l54.12 91.57c.36.61.16 1.4-.45 1.77-.21.12-.43.18-.65.18zM800.39 495.46c-.23 0-.46-.06-.68-.19-.61-.37-.79-1.17-.42-1.77 10.01-16.23 17.36-33.86 21.84-52.41.17-.69.86-1.12 1.56-.95.69.17 1.12.86.95 1.56-4.54 18.81-11.99 36.69-22.15 53.16-.24.4-.67.61-1.1.61zM884.96 436.59h-11.92c-.71 0-1.29-.58-1.29-1.29s.58-1.29 1.29-1.29h11.27l58.99-32.09c.62-.34 1.41-.11 1.75.52s.11 1.41-.52 1.75l-59.56 32.4zM896.56 455.93h-11.92c-.71 0-1.29-.58-1.29-1.29s.58-1.29 1.29-1.29h11.27l58.99-32.09c.62-.34 1.41-.11 1.75.52s.11 1.41-.52 1.75l-59.56 32.4zM895.27 483.02h-11.92c-.71 0-1.29-.58-1.29-1.29s.58-1.29 1.29-1.29h11.27l58.99-32.09c.62-.34 1.41-.11 1.75.52s.11 1.41-.52 1.75l-59.56 32.4zM548.3 739.15c-.2 0-.4-.05-.59-.15l-36.48-19.03-2.75-6.89c-.26-.66.06-1.41.72-1.68.66-.26 1.41.06 1.68.72l2.4 6 35.64 18.59c.63.33.88 1.11.55 1.74-.23.44-.68.69-1.14.69zM607.59 743.55c-.21 0-.43-.05-.63-.17l-80.23-45.34-5.33-10.67c-.32-.64-.06-1.41.58-1.73.64-.32 1.41-.06 1.73.58l4.98 9.97 79.55 44.95c.62.35.84 1.14.49 1.76-.24.42-.67.66-1.12.66zM624.34 724.21c-.21 0-.43-.05-.63-.16l-76.44-42.79-4.03-10.76c-.25-.67.09-1.41.75-1.66.67-.25 1.41.09 1.66.75l3.7 9.88 75.61 42.33c.62.35.84 1.13.5 1.76-.24.42-.67.66-1.13.66z"/></g><g transform="translate(435.519 148.197) scale(.60044)"><path fill="#2196F3" d="m456.49,773.86s-95.62-99.62,78.63-105.19c174.25-5.57,227.43-3.63,227.43-3.63l-211.71-77.38-183.65,21.83c-31.54,3.75-58.42,24.94-68.98,54.88-8.03,22.78-11.55,51.17,1.01,80.47,0,0,43.33-4.4,75,9.67,76.21,33.85,82.26,19.34,82.26,19.34Z"/><path fill="#ff9996" d="m616.17,515.13l-60.67,31.7-88.95,46.46-116.52,60.88c-62.91,31.44-129.44-74.96-25.4-159.59l63.58-47.68,138.42-103.82c7.55-3.88,15.46-5.27,23.44-4.62,62.85,5.14,130.51,136.98,66.1,176.68Z"/><path fill="#2196F3" d="m555.5,546.83l-88.95,46.46-78.34-146.4,138.42-103.82c7.55-3.88,15.46-5.27,23.44-4.62l5.43,208.38Z"/><path d="m648.76,125.05s-32.14-34.31,22.29-68.34c54.44-34.03,113.68,12.67,103.84,68.43-9.84,55.76-17.32,105.79,24.21,110.16,41.53,4.37,53.07-29.36,91.17-17.83,38.1,11.53,35.22,30.61,35.22,30.61,0,0-28.73-10.68-54.15-2.06,0,0,62.28,3.61,51.45,27.05-10.84,23.44-109.32,121.84-184.45,84.88-75.12-36.96-89.6-232.9-89.6-232.9Z"/><path fill="#2196F3" d="m995.32,650.18c-8.4,6.31-18.81,10.04-30.11,10.04h-439.19l2.98-312.22c.05-4.28,2.46-8.2,6.27-10.16l69.12-35.56,119.45-14.45,93.15-14.51,175.34,365.94c1.65,3.89,2.63,7.53,2.99,10.92Z"/><path fill="#ff9996" d="m724.32,288.91s-25.88,48.77-100.8,58.05c-74.93,9.29-49.7-28.91-49.7-28.91,14.52-8.46,17.41-14.39,19.51-22.65,3.57-14.02,4.85-28.94,3.47-39.02l60.45-28.73,1.79-.85,15.18-5.49c10.89,48.36,50.08,67.59,50.08,67.59Z"/><path fill="#fff" d="m701.15,176c.2,3.9.41,7.79.61,11.69"/><rect width="1.26" height="228.19" x="526.4" y="406.03" fill="#fff" transform="rotate(-.11 515.177 505.74)"/><path d="M526.83 406.64l.45 226.98h-.05s-.45-226.98-.45-226.98h.05m1.21-1.21h-2.47s.45 229.4.45 229.4h2.47s-.45-229.4-.45-229.4h0zM687.32 520.82l50.66 19.12-.15.99c-.12.77-9.25 58.08-29.68 119.28h-2.59c19.08-56.96 28.36-110.78 29.66-118.68l-53.53-20.19 49.21-29.84c28.61-66.8-10.65-153.19-11.04-154.06l2.24-1.03c.41.87 40.26 88.55 10.92 156.41l-.16.36-45.56 27.63zM569.56 529.9c1.31 7.69 11.47 65.1 34.78 130.31h-2.61c-24.76-69.53-34.61-130-34.74-130.78l-.13-.87 44.66-23.94c-24.06-5.28-41.92-14.69-42.1-14.79l-.67-.35v-.74c.21-29.92 26.26-136.62 27.36-141.14l2.4.59c-.27 1.09-26.64 109.12-27.27 139.8 3.59 1.81 21.38 10.4 44.08 14.91l3.38.66-49.14 26.33zM657.27 227.66c-7.31 17.88-30.59 67.45-63.92 67.74 3.57-14.02 4.85-28.94 3.47-39.02l60.45-28.73zM650.47 660.21h-2.47c-6.92-129.43.53-284.1.63-285.94l2.47.12c-.1 1.84-7.56 156.51-.63 285.82zM623.68 348.18c69.94-8.99 101.39-58.11 101.7-58.61l-2.09-1.31c-.3.49-31.19 48.63-99.93 57.47l.32 2.45z"/><polygon points="983.77 624.55 986.01 623.52 873.87 379.03 871.63 380.05 983.77 624.55"/><path fill="#ff9996" d="m705.51,180.59c-4.96-7-13.04-10.64-21.6-10.65-6.85-36.39-32.79-56.95-64.68-53.99-34.52,3.2-62.93,32.72-59.02,74.89,3.91,42.17,11.33,75.96,45.85,72.76,19.33-1.79,43.05-14.8,59.51-33.31,11.12-.78,23.47-4.96,30.88-10.2,13.62-9.64,17.68-27.32,9.05-39.5Z"/><path d="m699.35,203.77l2.12-1.25c-4.42-7.5-11.15-13.76-18.95-17.63l-1.1,2.21c7.37,3.66,13.74,9.58,17.92,16.67Z"/><rect width="11.71" height="2.47" x="686.38" y="199.13" transform="rotate(-71.81 692.196 200.377)"/><ellipse cx="621.15" cy="181.94" rx="3.92" ry="5.47" transform="rotate(-5.3 621.536 182.063)"/><ellipse cx="580.45" cy="184.39" rx="3.92" ry="5.47" transform="rotate(-5.3 580.825 184.509)"/><path d="M584.08 212.31c6.92-3.4 12.3-9.53 14.78-16.83 2.48-7.29 1.94-15.44-1.48-22.34l-2.21 1.09c3.13 6.32 3.62 13.78 1.35 20.46-2.27 6.68-7.2 12.29-13.54 15.4l1.09 2.21zM590.85 263.49c4.55 1.4 9.7 1.85 15.35 1.33 19.95-1.85 43.44-14.91 59.98-33.34 11.01-.87 23.41-5.01 31-10.38 6.84-4.84 11.58-11.77 13.36-19.53 1.79-7.81.36-15.51-4.02-21.69-4.84-6.83-12.66-10.86-21.58-11.15-7.14-35.89-32.88-57.06-65.81-54l.23 2.45c31.86-2.95 56.73 17.85 63.35 52.99l.19 1.01h1.02c8.53.01 16.04 3.7 20.59 10.12 3.97 5.6 5.25 12.6 3.62 19.71-1.64 7.16-6.04 13.58-12.38 18.07-7.37 5.21-19.53 9.22-30.25 9.97l-.5.04-.33.37c-15.92 17.9-39.5 31.12-58.7 32.9-6.53.61-12.32-.15-17.2-2.26l-.98 2.26c.99.43 2.01.8 3.06 1.13z"/><path fill="#fff" d="m596.01,224.38l30.3-6.68s-5.29,24.96-14.8,24.44c-9.51-.52-15.5-17.76-15.5-17.76Z"/><path d="M594.85 224.78l-.45-1.31 33.52-7.39-.4 1.87c-.56 2.66-5.8 25.97-16.07 25.41-.79-.04-1.56-.19-2.31-.42-8.83-2.72-14.06-17.49-14.29-18.17zm2.83.49c1.58 3.9 6.78 15.24 13.9 15.63 6.35.34 11.23-14.05 13.09-21.58l-26.99 5.95zM695.97 172.6s-17.07-3.81-24.96 10c-7.9 13.81-20.16 21.46-18.61 8.97 1.55-12.49 5.99-30.56 5.99-30.56 0 0-20.39-8.6-38.57-4.53-18.18 4.06-76.63 5.38-82.38-22.99-5.75-28.36 16.52-45.66 34.18-40.22 17.67 5.45 30.12 16.54 52.52 16.19 22.4-.35 77.54 1.94 71.84 63.13z"/><path fill="#ff9996" d="m932.96,635.84l-89.62-134.75-61.43-92.36c-60.34-102.79,39.92-195.87,130.65-90.68l78.77,135.56,52.07,89.59c52.16,96.55-53.34,172.68-110.44,92.64Z"/><path fill="#ff9996" d="m731.25,552.84l273.24-76.61,49.22,84.32c28.6,49-6.76,110.53-63.52,110.53h-253.03s-43.55,2.42-45.97-45.94c-.66-13.18.48-24.11,2.48-33.05,4.26-19,18.83-34,37.59-39.26Z"/><path fill="#c9c9c9" d="M415.97 731.55c-.28 0-.57-.02-.85-.07l-107.67-16.93c-2.97-.47-5-3.25-4.53-6.22.47-2.97 3.25-5 6.22-4.53l107.67 16.93c2.97.47 5 3.25 4.53 6.22-.42 2.68-2.74 4.6-5.37 4.6zM415.97 698.9c-.28 0-.57-.02-.85-.07l-107.67-16.93c-2.97-.47-5-3.25-4.53-6.22s3.25-4.99 6.22-4.53l107.67 16.93c2.97.47 5 3.25 4.53 6.22-.42 2.68-2.74 4.6-5.37 4.6zM442.58 671.09c-.28 0-.57-.02-.85-.07l-107.67-16.93c-2.97-.47-5-3.25-4.53-6.22.47-2.97 3.24-4.99 6.22-4.53l107.67 16.93c2.97.47 5 3.25 4.53 6.22-.42 2.68-2.74 4.6-5.37 4.6zM483.71 655.38c-.28 0-.57-.02-.85-.07l-107.67-16.93c-2.97-.47-5-3.25-4.53-6.22.47-2.97 3.25-5 6.22-4.53l107.67 16.93c2.97.47 5 3.25 4.53 6.22-.42 2.68-2.74 4.6-5.37 4.6z"/><path fill="#2196F3" d="m991.33,453.61c-66.1-11.27-123.96,27.95-147.99,47.48l-61.43-92.36c-60.34-102.79,39.92-195.87,130.65-90.68l78.77,135.56Z"/><path d="m854.5,519.96c-.39,0-.78-.19-1.01-.54l-62.91-95.51c-.37-.56-.21-1.31.34-1.67.56-.37,1.31-.21,1.68.34l62.91,95.51c.37.56.21,1.31-.34,1.67-.2.14-.44.2-.66.2Z"/><path d="m786.75,538.1c-.53,0-1.02-.35-1.16-.89-.18-.64.2-1.31.85-1.49l123.39-33.85c.64-.18,1.31.2,1.49.85.18.64-.2,1.31-.85,1.49l-123.39,33.85c-.11.03-.22.04-.32.04Z"/><path fill="#727272" d="m444.33,554.12c-4.46,0-8.72-2.54-10.71-6.84l-54.55-117.89c-2.73-5.91-.16-12.91,5.75-15.65,5.91-2.73,12.92-.16,15.66,5.75l54.55,117.89c2.73,5.91.16,12.91-5.75,15.65-1.6.74-3.29,1.09-4.94,1.09Z"/><path fill="#ff9996" d="m348.5,666.08c-14.71-5.72-24.81-19.8-24.63-35.57.07-6.18,1.68-12.2,6.19-16.7,14.74-14.74,7.37-41.26,7.37-41.26,0,0-4.42-26.52,23.59-29.47,12.53-1.32-2.95-38.31,23.59-38.31,7.07,0,56.07,9.65,76.56,13.19,5.89,1.02,11.42,3.51,16.09,7.23l18.92,15.07c7.8,6.21,10.69,16.74,7.16,26.06l-9.35,18.94s12.44,10.54-9.68,32.64c0,0,4.84,31.44-43.67,32.74,0,0,10.32,10.31-13.27,16.21-3.71.93-7.32,1.89-10.75,2.86-22.2,6.24-45.82,5.03-67.31-3.32l-.8-.31Z"/><path d="M493.99 586.46c-.11 0-.23-.02-.35-.05l-36.29-10.88-41.13-12.09c-.64-.19-1.01-.86-.82-1.5.19-.64.86-1.01 1.5-.82l41.13 12.09 36.3 10.88c.64.19 1 .87.81 1.51-.16.52-.64.86-1.16.86zM484.31 619.1h-63.06l-.14-.04-19.36-4.84c-.65-.16-1.04-.82-.88-1.47.16-.65.82-1.04 1.47-.88l19.21 4.8h62.76c.67 0 1.21.54 1.21 1.21s-.54 1.21-1.21 1.21zM440.76 651.75h-45.97c-.67 0-1.21-.54-1.21-1.21s.54-1.21 1.21-1.21h45.97c.67 0 1.21.54 1.21 1.21s-.54 1.21-1.21 1.21z"/><path d="m324.62,639.46c-.56,0-1.07-.39-1.18-.96-.54-2.62-.8-5.32-.77-8,.08-7.39,2.28-13.29,6.54-17.54,14.08-14.07,7.13-39.82,7.06-40.08l-.03-.13c-.08-.49-1.91-12.05,4.94-21.05,4.26-5.59,10.89-8.9,19.72-9.83,3.89-.41,4.44-5.32,5.02-13.29.77-10.56,1.82-25.03,18.7-25.03,5.02,0,30.02,4.63,52.07,8.71,9.49,1.76,18.46,3.42,24.7,4.5,6.06,1.05,11.81,3.63,16.63,7.47l18.92,15.07c8.24,6.56,11.27,17.59,7.54,27.44l-9.4,19.05c-.29.6-1.02.85-1.62.55-.6-.3-.85-1.02-.55-1.62l9.35-18.94c3.31-8.75.59-18.68-6.83-24.58l-18.92-15.07c-4.51-3.59-9.88-6.01-15.54-6.98-6.26-1.08-15.23-2.74-24.73-4.5-20.86-3.86-46.82-8.67-51.63-8.67-14.63,0-15.51,12.11-16.29,22.79-.56,7.65-1.08,14.88-7.18,15.52-8.13.86-14.2,3.84-18.03,8.87-5.99,7.86-4.62,18.3-4.5,19.15.21.79,1.87,7.19,1.87,15.36,0,11.41-3.31,20.75-9.57,27.01-3.8,3.79-5.76,9.13-5.83,15.86-.03,2.51.22,5.03.72,7.49.13.65-.29,1.29-.94,1.43-.08.02-.16.02-.25.02Z"/><path fill="#ff9996" d="m728.94,553.84c-.17-.02-.33,0-.5.05-4.53,1.38-59.04,8.39-100.17,14.44-19.16,2.82-39.78,2.18-51.69,1.12-6.82-.61-13.67.61-19.86,3.52l-47.46,22.32c-2.87,1.35-5.31,3.45-7.09,6.07l-24.92,36.9s-6.25,19.54,14.32,11.08c0,0-8.47,14.51,3.63,24.18,0,0,3.63,19.34,31.45,8.46,0,0-8.47,13.3,32.66,6.05,15.3-2.7,26.42-13.97,37.5-16.93,27.82-1.21,32.66-1.21,32.66-1.21l107.67,1.21s48.39-35.06,38.71-74.96c-9.2-37.94-43.57-41.99-46.92-42.3Z"/><path d="M491.57 651.75c-.26 0-.53-.09-.75-.26-.52-.41-.61-1.17-.2-1.7l23.16-29.24.26-.12 45.62-21.6 5.86-10.54c.32-.58 1.06-.8 1.64-.47.58.32.8 1.06.47 1.64l-6.24 11.22-.35.17-45.72 21.64-22.81 28.8c-.24.3-.59.46-.95.46zM495.14 673.15c-.25 0-.5-.08-.72-.24-.54-.4-.65-1.15-.25-1.69 5.15-6.96 22.66-29.98 31.56-34.07 9.45-4.34 36.95-17.52 40.04-19l5.87-8.21c.39-.54 1.14-.67 1.69-.28.54.39.67 1.14.28 1.69l-6.23 8.72-.28.13c-.3.15-30.37 14.57-40.35 19.15-6.66 3.06-20.19 19.22-30.63 33.31-.24.32-.6.49-.97.49zM526.65 683.18c-.26 0-.53-.09-.75-.26-.52-.42-.61-1.18-.19-1.7.6-.75 14.72-18.35 20.89-22.04 5.67-3.4 28.58-16.49 31.23-18.01l4.68-7.02c.37-.56 1.12-.7 1.68-.34.56.37.71 1.12.34 1.68l-5 7.49-.25.14c-.25.15-25.46 14.54-31.43 18.12-5.8 3.47-20.1 21.3-20.24 21.48-.24.3-.59.45-.95.45z"/></g></svg>