<svg xmlns="http://www.w3.org/2000/svg" viewBox="137.112 -29.468 951.167 947.01"><path fill="#1976d2" d="m356.81,67.73c-111.39,69.49-173.21,172.81-277.55,239.98-110.99,83.42,7.54,242.42,94.72,292.22,138.88,87.84,212.48-16.34,368.55-106.41,47.51-27.42,132.88-55.35,142.04-116.01,37.66-249.47-118.34-440.43-327.76-309.78Z" transform="translate(90.608 -63.944) scale(1.35802)"/><g transform="translate(118.64 91.87) scale(.90144)"><path fill="#ff9996" d="m398.71,647.23l-77.64,157.99c-4.83,9.82-.35,20.02,7.14,28,23.5,25.01,59.92,51.44,68.5,55.01,12,5,15,7,12,13s-1,4-19,4-65-6-65-6c0,0-61.24-18-73.62-30.5,0,0-14.38-4.5-9.38-24.5s23-196,23-196l134-1Z"/><path fill="#87ddfd" d="m283.21,874.94s95.5,14.29,89.5-2.71c0,0,35,17,41,23,8.71,8.71,2.41,14-9.91,14h-173.98l53.39-34.29Z"/><path fill="#ff9996" d="m149.71,644.23l135,4-32,180s42.68,57.4,74.62,65.27c2.61.64,4.07,3.43,3.01,5.89s-3.89,5.39-10.63,6.83c-11.44,2.45-60.84-6.11-91.33-7.49-6.71-.3-13.01-3.25-17.61-8.14-4.42-4.71-32.27-17.24-37.06-19.37-9-4-29-6-28-23s-2-15,5-43c2.92-11.68-1-161-1-161Z"/><path fill="#52cc99" d="m325.51,146.28s5.25-21.05-32.8-21.05c-33,0-44,26-37.78,72.14,5.19,38.52,70.58-51.09,70.58-51.09Z"/><path fill="#52cc99" d="m322.03,136.02s7.69,13.21,4.69,29.21c-3,16,21.2,16.25,26.1,31.63,4.9,15.37-1.1,28.37-12.1,35.37s-67.36-38.1-67.36-38.1l48.68-58.11Z"/><path fill="#ff9996" d="m654.71,435.23l-53,31-78.59-34.5c-37.41-22.5-13.41-71.5,24.59-54.5l98,37c3.32,1.68,11.57,18.31,9,21Z"/><path fill="#767fad" d="m421.71,397.23l-68-60c-59.12-44.36-45.67-126.96-4-102l116,102c47,41-9,93-44,60Z"/><path fill="#ff9996" d="m611.78,470.33h0c3.22-4.39,2.07-10.58-2.51-13.53l-11.29-7.26c-4.51-2.9-10.53-1.47-13.24,3.16l-.25.42c-2.64,4.48-1.15,10.26,3.32,12.91l11.54,6.84c4.18,2.48,9.55,1.38,12.43-2.54Z"/><path d="m604.17,474.73c-1.74,0-3.5-.46-5.1-1.41l-11.54-6.84c-4.72-2.79-6.29-8.91-3.51-13.64l.25-.42c1.39-2.36,3.62-4.01,6.29-4.65,2.66-.63,5.4-.17,7.71,1.31l11.29,7.26c2.34,1.5,3.91,3.84,4.41,6.57s-.12,5.48-1.76,7.72h0c-1.95,2.66-4.96,4.09-8.03,4.09Zm-11.28-26.16c-.69,0-1.39.08-2.09.25-2.38.57-4.37,2.04-5.61,4.15l-.25.42c-2.48,4.22-1.08,9.68,3.14,12.18l11.54,6.84c3.96,2.35,9,1.32,11.72-2.4,1.47-2,2.03-4.45,1.58-6.89-.45-2.44-1.85-4.53-3.94-5.87l-11.29-7.26c-1.46-.94-3.11-1.42-4.79-1.42Z"/><path fill="#ff9996" d="m628.78,462.33h0c3.22-4.39,2.07-10.58-2.51-13.53l-11.29-7.26c-4.51-2.9-10.53-1.47-13.24,3.16l-.25.42c-2.64,4.48-1.15,10.26,3.32,12.91l11.54,6.84c4.18,2.48,9.55,1.38,12.43-2.54Z"/><path d="m621.17,466.73c-1.74,0-3.5-.46-5.1-1.41l-11.54-6.84c-4.72-2.79-6.29-8.91-3.51-13.64l.25-.42c1.39-2.36,3.62-4.01,6.29-4.65,2.66-.63,5.4-.17,7.71,1.31l11.29,7.26c2.34,1.5,3.91,3.84,4.41,6.57s-.12,5.48-1.76,7.72h0c-1.95,2.66-4.96,4.09-8.03,4.09Zm-11.28-26.16c-.69,0-1.39.08-2.09.25-2.38.57-4.37,2.04-5.61,4.15l-.25.42c-2.48,4.22-1.08,9.68,3.14,12.18l11.54,6.84c3.96,2.35,9,1.32,11.72-2.4,1.47-2,2.03-4.45,1.58-6.89-.45-2.44-1.85-4.53-3.94-5.87l-11.29-7.26c-1.46-.94-3.11-1.42-4.79-1.42Z"/><path fill="#ff9996" d="m640.78,452.33h0c3.22-4.39,2.07-10.58-2.51-13.53l-11.29-7.26c-4.51-2.9-10.53-1.47-13.24,3.16l-.25.42c-2.64,4.48-1.15,10.26,3.32,12.91l11.54,6.84c4.18,2.48,9.55,1.38,12.43-2.54Z"/><path d="m633.17,456.73c-1.74,0-3.5-.46-5.1-1.41l-11.54-6.84c-4.72-2.79-6.29-8.91-3.51-13.64l.25-.42c1.39-2.36,3.62-4.01,6.29-4.65,2.66-.63,5.4-.17,7.71,1.31l11.29,7.26c2.34,1.5,3.91,3.84,4.41,6.57s-.12,5.48-1.76,7.72h0c-1.95,2.66-4.96,4.09-8.03,4.09Zm-11.28-26.16c-.69,0-1.39.08-2.09.25-2.38.57-4.37,2.04-5.61,4.15l-.25.42c-2.48,4.22-1.08,9.68,3.14,12.18l11.54,6.84c3.96,2.35,9,1.32,11.72-2.4,1.47-2,2.03-4.45,1.58-6.89-.45-2.44-1.85-4.53-3.94-5.87l-11.29-7.26c-1.46-.94-3.11-1.42-4.79-1.42Z"/><path fill="#ff9996" d="m653.78,441.33h0c3.22-4.39,2.07-10.58-2.51-13.53l-11.29-7.26c-4.51-2.9-10.53-1.47-13.24,3.16l-.25.42c-2.64,4.48-1.15,10.26,3.32,12.91l11.54,6.84c4.18,2.48,9.55,1.38,12.43-2.54Z"/><path d="m646.17,445.73c-1.74,0-3.5-.46-5.1-1.41l-11.54-6.84c-4.72-2.79-6.29-8.91-3.51-13.64l.25-.42c1.39-2.36,3.62-4.01,6.29-4.65,2.67-.63,5.4-.17,7.71,1.31l11.29,7.26c2.34,1.5,3.91,3.84,4.41,6.57s-.12,5.48-1.76,7.72h0c-1.95,2.66-4.96,4.09-8.03,4.09Zm-11.28-26.16c-.69,0-1.39.08-2.09.25-2.38.57-4.37,2.04-5.61,4.15l-.25.42c-2.48,4.22-1.08,9.68,3.14,12.18l11.54,6.84c3.96,2.35,9,1.32,11.72-2.4,1.47-2,2.03-4.45,1.58-6.89-.45-2.44-1.85-4.53-3.94-5.87l-11.29-7.26c-1.46-.94-3.11-1.42-4.79-1.42Z"/><path fill="#ff9996" d="m547.71,377.23l38.49-2.67c2.92-.21,5.84.53,8.3,2.12l26.81,17.35c2.14,1.38,3.68,3.5,4.33,5.96,1.47,5.56,4.52,15.68,8.07,19.24,5,5,0,16-12,13s-29.04-21.6-29.04-21.6c0,0-33.96,22.6-56.96,5.6l12-39Z"/><path d="m625.63,433.28c-1.24,0-2.59-.16-4.05-.53-11.28-2.82-26.57-18.83-29-21.42-2.06,1.3-12.14,7.41-24.27,10.27l-.24-1.04c13.35-3.14,24.2-10.29,24.3-10.36l.38-.25.31.34c.17.18,17.07,18.51,28.77,21.44,6.46,1.62,10.56-1,12.25-3.99,1.59-2.81,1.29-6.07-.76-8.12-3.63-3.63-6.7-13.76-8.21-19.48-.61-2.33-2.07-4.33-4.1-5.65l.58-.9c2.26,1.46,3.88,3.69,4.56,6.28,1.48,5.61,4.48,15.54,7.93,19,2.39,2.39,2.76,6.17.93,9.4-1.49,2.64-4.64,5.03-9.39,5.03Z"/><path fill="#87ddfd" d="m404.6,583.23c-.03,5.92-.22,11.62-.51,17-.31,6.11-.76,11.82-1.26,17-.63,6.6-1.34,12.35-2,17-1.16,8.2-2.14,12.99-2.14,12.99-46.02,2.98-252.98,0-252.98,0v-180.99l232.92-23.12s5.73,9.15,12.72,38.12c1.22,5.05,2.48,10.69,3.75,17,1.05,5.2,2.11,10.86,3.16,17,.91,5.3,1.82,10.96,2.72,17,.25,1.64.49,3.31.73,5,.57,4.02,1.05,8.02,1.43,12,.57,5.75.95,11.43,1.18,17,.25,5.82.33,11.51.28,17Z"/><path fill="#87ddfd" d="M395.1 498.23h-249.39v-17h245.64c1.22 5.05 2.48 10.69 3.75 17zM400.98 532.23h-255.27v-17h252.55c.91 5.3 1.82 10.96 2.72 17zM404.32 566.23H145.71v-17h257.43c.57 5.75.95 11.43 1.18 17zM404.6 583.23c-.03 5.92-.22 11.62-.51 17H145.71v-17h258.89zM402.83 617.23c-.63 6.6-1.34 12.35-2 17h-255.12v-17h257.12zM382.71 451.23l-237 15 33.04-248.03 69.98-20.34 59.28 12.68 39.32 23.43 2.05 1.22s.95 5.64 2.53 15.14c.74 4.43 1.62 9.7 2.6 15.63.85 5.17 1.79 10.84 2.79 16.89.8 4.92 1.65 10.1 2.52 15.47.9 5.48 1.82 11.16 2.76 16.96.81 5.02 1.64 10.13 2.46 15.3.91 5.63 1.81 11.33 2.72 17.03.8 5.06 1.6 10.12 2.39 15.15.9 5.78 1.79 11.51 2.66 17.12 4.7 30.66 8.61 57.84 9.9 71.35z"/><path fill="#87ddfd" d="M351.91 250.33c-22.29 5.89-45.31 8.82-68.37 8.82-36.16 0-72.4-7.22-106.03-21.61l6.69-15.63c51.53 22.05 109.57 26.13 163.13 12.06l2.05 1.22s.95 5.64 2.53 15.14zM357.3 282.85c-23.96 6.87-48.84 10.3-73.76 10.3-36.16 0-72.4-7.22-106.03-21.61l6.69-15.63c53.84 23.04 114.79 26.46 170.31 10.05.85 5.17 1.79 10.84 2.79 16.89zM362.58 315.28c-25.58 7.92-52.29 11.87-79.04 11.87-36.16 0-72.4-7.22-106.03-21.61l6.69-15.63c55.56 23.78 118.7 26.65 175.62 8.41.9 5.48 1.82 11.16 2.76 16.96z"/><path fill="#87ddfd" d="m367.76,347.61c-27.15,9.04-55.66,13.54-84.22,13.54-36.16,0-72.4-7.22-106.03-21.61l6.69-15.63c57.27,24.51,122.58,26.81,180.84,6.67.91,5.63,1.81,11.33,2.72,17.03Z"/><path fill="#87ddfd" d="m372.81,379.88c-28.65,10.19-58.93,15.27-89.27,15.27-36.16,0-72.4-7.22-106.03-21.61l6.69-15.63c58.95,25.23,126.42,26.93,185.95,4.85.9,5.78,1.79,11.51,2.66,17.12Z"/><path fill="#ff9996" d="m532.12,436.73l-34.7-11.09-60.71-19.41c-55-21-16-89,29-69l59.37,28.73,33.63,16.27c34,14,22,71-26.59,54.5Z"/><path fill="#767fad" d="m525.08,365.96l-27.66,59.68-60.71-19.41c-55-21-16-89,29-69l59.37,28.73Z"/><path fill="#ff9996" d="m293.71,230.23c-32.14-5.83-53-30-53-30,0,0,21-10,37-33l5.59,5.86,15.41,16.14,7.72,17.68,1.58,3.63s17.85,25.52-14.3,19.69Z"/><path d="m306.43,206.91c-.97.09-2.11.02-3.44-.26-20.21-4.23-28.28-31.42-28.28-31.42l8.59-2.14,15.41,16.14,7.72,17.68Z"/><path fill="#767fad" d="M302.99 206.65s19.79 34.08 22.72 107.58-2.75 169.55-2.75 169.55c0 0 76.7 2.74 75.73-12.41s-48.98-236.15-48.98-236.15l-28-20-20-18 1.28 9.42zM254.71 187.23s24.66 14.59 31 78-4.5 217.5-4.5 217.5c0 0-147.5 7.5-141.5-17.5s39.43-168.61 39.43-168.61l-.39-78.42 61.96-17.97 14-13z"/><path fill="#ff9996" d="m264.45,147.98c3.01-2.18,6.82-2.55,10.33-1.37,7.86-13.97,21.35-18.8,34.01-13.16,13.7,6.1,21.24,22.16,13.78,38.9-7.46,16.75-15.2,29.58-28.9,23.47-7.67-3.42-15.59-12.05-19.76-21.92-4.45-1.86-8.93-5.29-11.24-8.47-4.24-5.84-3.45-13.66,1.78-17.46Z"/><path d="m263.76,158.34l-.7-.81c2.85-2.46,6.48-4.09,10.22-4.6l.14,1.06c-3.53.48-6.96,2.02-9.66,4.35Z"/><path fill="#fff" d="m267.17,155.4l-.05,5.07"/><rect width="5.07" height="1.07" x="264.61" y="157.4" transform="rotate(-89.48 267.136 157.938)"/><ellipse cx="298.84" cy="160.25" rx="2.37" ry="1.7" transform="rotate(-65.99 298.855 160.248)"/><ellipse cx="315.18" cy="166.91" rx="2.37" ry="1.7" transform="rotate(-65.99 315.191 166.903)"/><path d="M309.82 177.85c-2.36-2.35-3.72-5.62-3.72-8.95s1.35-6.6 3.71-8.96l.75.76c-2.16 2.16-3.4 5.15-3.39 8.2 0 3.05 1.24 6.04 3.41 8.2l-.75.76zM300.3 197.91c-2.17 0-4.47-.53-6.84-1.59-7.92-3.53-15.73-12.15-19.95-22-4.39-1.89-8.9-5.31-11.26-8.56-4.41-6.07-3.56-14.24 1.9-18.2 2.93-2.13 6.7-2.69 10.39-1.58 7.92-13.72 21.41-18.83 34.48-13.01l-.43.97c-12.65-5.63-25.73-.56-33.33 12.94l-.22.39-.42-.14c-3.5-1.18-7.09-.71-9.85 1.29-4.98 3.62-5.72 11.11-1.66 16.71 2.3 3.16 6.72 6.49 11.01 8.29l.2.08.08.2c4.04 9.55 11.87 18.25 19.49 21.64 2.59 1.16 5.07 1.64 7.36 1.46l.09 1.06c-.34.03-.69.04-1.04.04z"/><path fill="#767fad" d="m163.71,230.23l-113.85,136.8c-29.15,46.2,38.85,118.2,100.1,43.01l90.2-124.64c34.55-44.17-44.45-97.17-76.45-55.17Z"/><rect width="79.4" height="1.07" x="182.01" y="310.2" transform="rotate(-53.66 221.739 310.748)"/><rect width="1.07" height="126.75" x="360.18" y="240.85" transform="rotate(-9.54 360.596 304.14)"/><polygon points="335.12 371.89 334.05 371.87 336.18 258.38 324.37 240.57 333.57 244.77 324.97 224.32 325.96 223.9 335.61 246.87 327.32 243.09 337.25 258.07 337.25 258.23 335.12 371.89"/><path d="m293.73,470.24l82.37,15.16c5.65,1.04,11.39-2.69,12.81-8.34l31.58-125.05c1.43-5.65-2-11.07-7.65-12.11l-82.37-15.16c-5.65-1.04-11.39,2.69-12.81,8.34l-31.58,125.05c-1.43,5.65,2,11.07,7.65,12.11Z"/><path fill="#87ddfd" d="m297.11,470.87l82.53,15.19c5.6,1.03,11.3-2.67,12.71-8.28l31.04-122.9c1.41-5.6-1.98-10.98-7.59-12.01l-82.53-15.19c-5.6-1.03-11.3,2.67-12.71,8.28l-31.04,122.9c-1.41,5.6,1.98,10.98,7.59,12.01Z"/><path fill="#d4dde6" d="m398.04,371.02l7.17,1.32c2.81.52,5.66-1.34,6.36-4.14l3.27-12.94c.71-2.8-.99-5.5-3.8-6.01l-7.17-1.32c-2.81-.52-5.66,1.34-6.36,4.14l-3.27,12.94c-.71,2.8.99,5.5,3.8,6.01Z"/><ellipse cx="405.85" cy="354.93" rx="4.28" ry="4" transform="rotate(-38.61 405.905 354.953)"/><ellipse cx="403.22" cy="365.33" fill="#fff" rx="3.05" ry="2.86" transform="rotate(-38.61 403.275 365.345)"/><ellipse cx="404.39" cy="360.71" rx=".61" ry=".57" transform="rotate(-38.61 404.445 360.723)"/><rect width="60.34" height="1" x="371.4" y="445.15" fill="#232626" transform="rotate(-76.8 401.604 445.652)"/><path fill="#ff9996" d="m307.71,371.23c-7.89-1.83-12.08-3.1-22-4-22-2-49,12-49,12-46,14-35,71-10,75,0,0,82,19,95,17s9-20,9-20c8-8,5-18,5-18,9-4,8-17,8-17,7.74-12.91-.79-18.4-3.33-19.69-8.49,1.69-30.42,1.69-38.67,1.69,1-7,4.42-17.66,6-27Z"/><path fill="#ff9996" d="m259.71,379.23l-10.68,79.98-63.54-5.76-112.78-10.22c-46-6-47-100,22-94l112.32,20.42,52.68,9.58Z"/><path fill="#767fad" d="m207.03,369.65l-21.54,83.8-112.78-10.22c-46-6-47-100,22-94l112.32,20.42Z"/><rect width="1.07" height="119.68" x="181.68" y="305.89" transform="rotate(-80.38 182.214 365.726)"/><rect width="1.07" height="109.37" x="150.18" y="395.54" transform="rotate(-85.28 150.712 450.227)"/><path d="M213.3 274.4c-6.94-17.71-16.84-33.92-29.41-48.2l.8-.71c12.66 14.37 22.62 30.69 29.6 48.51l-.99.39zM315.14 398.47c-6.85 0-12.43-.19-12.95-.21l.04-1.07c.29 0 29.01.97 37.33-1.48l.3 1.02c-4.8 1.41-15.82 1.73-24.72 1.73z"/><rect width="18.49" height="1.07" x="325.34" y="417.18" transform="rotate(-9.26 334.393 417.536)"/><rect width="13.73" height="1.07" x="323.1" y="433.95" transform="rotate(-10.53 329.977 434.456)"/><rect width="13.73" height="1.07" x="316.1" y="451.95" transform="rotate(-10.53 322.955 452.469)"/><path d="m299.86,182.4c-4.33-2.11-7.17-6.77-7.08-11.58l1.07.02c-.08,4.34,2.58,8.7,6.48,10.61l-.47.96Z"/><path fill="#52cc99" d="m325.51,146.28s1.17,10.41-15.32,7.18c-16.48-3.23-23.48-5.23-27.48,2.77s-8,12-6,29c0,0-16.53-14.58,0-45,16.53-30.42,53-6,48.8,6.05Z"/><path fill="#87ddfd" d="m147.71,818.23s24,4,55,39c12.67,14.3,49,35,59,35,0,0,46.68-.61,35-17,0,0,87.98,37.5,36.49,37.5h-119.68s-13.8-22.5-21.8-24.5l-16.18,25.5h-17.85l-12.28-47.84s-12.69-23.66,2.31-47.66Z"/><rect width="160.29" height="1.07" x="190.57" y="726.2" transform="rotate(-80.31 270.75 726.747)"/><path d="M279.5 568.38l-.94-.51c12.79-23.27 27.14-46.01 42.65-67.57l.87.62c-15.49 21.53-29.81 44.23-42.58 67.46zM338.32 897.16c-14.38-9.86-41.54-21.33-41.81-21.44-5.55-2.52-26.94-26.24-27.85-27.25l.79-.71c.22.25 22.15 24.56 27.48 26.98.26.11 27.51 11.61 41.98 21.54l-.6.88z"/><polygon points="272.82 361.94 262.87 252.41 266.41 240.26 255.86 240.26 241.74 207.2 242.72 206.78 256.57 239.2 267.84 239.2 263.95 252.52 273.88 361.85 272.82 361.94"/><path d="m301.87,231.62c-1.1,0-2.32-.06-3.65-.2l.11-1.06c10.49,1.09,12.84-2.79,12.86-2.83l.93.52c-.09.16-2.06,3.58-10.25,3.58Z"/></g><g transform="translate(611.413 167.782) scale(.90213)"><polygon fill="#767fad" points="409.24 748.6 421.64 784.9 513.35 777.33 507.08 737.9 409.24 748.6"/><rect width="1" height="28.64" x="440.58" y="751.28" transform="rotate(-12.09 441.27 765.858)"/><rect width="1" height="34.71" x="457.08" y="748.24" transform="rotate(-11.63 457.75 765.797)"/><rect width="1" height="28.64" x="473.58" y="748.28" transform="rotate(-12.09 474.292 762.862)"/><rect width="1" height="28.64" x="489.58" y="748.28" transform="rotate(-12.09 490.285 762.885)"/><rect width="1" height="28.64" x="504.58" y="745.28" transform="rotate(-12.09 505.307 759.892)"/><rect width="87" height="29" x="226.58" y="742.1" fill="#767fad"/><rect width="1" height="22.02" x="240.08" y="742.59" transform="rotate(-2.6 240.802 754.313)"/><rect width="1" height="27.02" x="256.08" y="742.59" transform="rotate(-2.12 256.598 756.521)"/><rect width="1" height="29.02" x="272.08" y="742.59" transform="rotate(-1.97 273.195 758.998)"/><rect width="1" height="27.02" x="288.08" y="742.59" transform="rotate(-2.12 288.765 756.575)"/><rect width="1" height="22.02" x="304.08" y="742.59" transform="rotate(-2.6 304.953 754.226)"/><path fill="#767fad" d="m277.9,345.15l21.38,87.93,31.79,18.61,71.48,293.78c1.82,7.49,8.95,12.44,16.61,11.53l77.74-9.28c8.85-1.06,14.91-9.46,13.12-18.2l-36.54-177.64-8.9-219.78-186.69,13.06Z"/><path fill="#767fad" d="m220.58,347.1l-9,211,8.54,178.08c.26,5.4,4.63,9.69,10.03,9.84l78.71,2.28c5.66.16,10.4-4.26,10.63-9.92l7.28-177.71,27.02-213.58h-133.22Z"/><path d="m447.88,422.08c-17.38-1.29-33.28-15.11-36.97-32.15l.98-.21c3.6,16.62,19.1,30.11,36.06,31.37l-.07,1Z"/><path fill="#7c4b33" d="m159.96,313.96l-20.3-56.57c-12.04-35.32,30.76-71.33,62.15-44.8l57.52,75.6c29.98,56.09-80.34,88.31-99.36,25.78Z"/><path d="m209.35,348.61c-6.17,0-12.26-.83-17.94-2.56-11.19-3.41-25.81-11.72-31.96-31.93l-3.61-10.05,1.01-.36,3.61,10.07c6.02,19.79,20.32,27.91,31.26,31.24,19.14,5.84,43.07,1.3,58.2-11.03l.67.83c-10.89,8.88-26.28,13.78-41.24,13.78Z"/><path fill="#d4dde6" d="m204.26,222.99s40.32-100.89,86.44-121.35l-33.11,156.47-53.32-35.11Z"/><path fill="#87ddfd" d="m217.58,406.1c-3-80,15-264,63-298,21.54-15.26,40.74-14.59,55.37-13.29,14.63,1.29,92.63-9.71,115.63,52.29,8.46,22.81,4,143,21,241-75.29,21.1-186.15,34.95-255,18Z"/><path fill="#7c4b33" d="m322.58,81.1l-17,15s-19,37,8,43c46.71,10.38,58-44,58-44,0,0-15.9-18.47-13-30l-36,16Z"/><path fill="#7c4b33" d="m370.78,48.95c-2.16-3.02-5.67-4.57-9.37-4.56-3.05-15.74-14.33-24.58-28.12-23.22-14.93,1.47-27.15,14.32-25.36,32.57,1.79,18.25,5.09,32.86,20.02,31.39,8.36-.82,18.59-6.51,25.67-14.56,4.81-.36,10.15-2.2,13.34-4.49,5.87-4.21,7.58-11.87,3.82-17.12Z"/><path d="m368.17,59c-1.83-3.06-4.6-5.61-7.8-7.18l.47-.96c3.38,1.66,6.31,4.35,8.24,7.59l-.92.55Z"/><path fill="#fff" d="m365.86,55.13c-.52,1.61-1.04,3.22-1.56,4.82"/><rect width="5.07" height="1.07" x="362.54" y="57.01" transform="rotate(-72.1 365.058 57.551)"/><ellipse cx="334.28" cy="49.74" rx="1.7" ry="2.37" transform="rotate(-5.61 334.42 49.733)"/><ellipse cx="316.67" cy="50.9" rx="1.7" ry="2.37" transform="rotate(-5.61 316.768 50.914)"/><path d="M318.3 62.97l-.48-.96c2.73-1.36 4.85-3.81 5.82-6.7.97-2.9.74-6.12-.63-8.85l.96-.48c1.49 2.98 1.75 6.51.69 9.67-1.06 3.16-3.37 5.83-6.36 7.32zM325.96 85.76c-2.19 0-4.18-.37-5.93-1.12l.42-.98c2.12.9 4.62 1.21 7.45.94 8.3-.82 18.48-6.6 25.32-14.39l.14-.16.22-.02c4.64-.35 9.89-2.12 13.07-4.39 5.62-4.03 7.28-11.38 3.7-16.38-1.98-2.76-5.21-4.33-8.88-4.33h-.5s-.08-.43-.08-.43c-2.95-15.2-13.75-24.14-27.54-22.79l-.1-1.06c14.25-1.4 25.43 7.71 28.61 23.22 3.86.11 7.26 1.83 9.37 4.78 3.93 5.48 2.16 13.5-3.95 17.87-3.27 2.34-8.63 4.17-13.39 4.57-7.11 8.02-17.25 13.73-25.88 14.58-.7.07-1.38.1-2.04.1z"/><path fill="#d4dde6" d="m376.15,92.94c-2.1-.53-4.27.51-5.19,2.48-6.17,13.23-28.1,65.52-32.38,148.68-5,97,2.05,111.27,2.05,111.27l6.97,1.32s-3.02,20.41,14.98,18.41,110-14.46,110-19.73-2.5-23.27-2.5-23.27c0,0,5.5-9,5.5-15s-7.49-25.09-8.75-31.04c-1.25-5.96,3.67-139.38-23.25-161.96-22.31-18.71-56.41-28.39-67.43-31.15Z"/><path d="m377.14,373.29c-.78-5.78-1.32-11.63-1.61-17.43l1-.05c.29,5.78.82,11.59,1.6,17.35l-.99.13Z"/><polygon points="397.68 370.47 396.14 352.33 397.14 352.25 398.68 370.32 397.68 370.47"/><polygon points="419.59 367.21 418.23 350.86 419.23 350.78 420.58 367.05 419.59 367.21"/><polygon points="443.68 363.19 441.34 345.26 442.33 345.13 444.66 363.01 443.68 363.19"/><path fill="#d4dde6" d="m287.58,226.1c-5,114,4.22,125.18-4.89,132.59,0,0,2.57,4.55,3.34,10.13.75,5.5-3.31,10.47-8.84,10.81-3.63.21-8.35.44-13.55.56-.33.01-.66.02-1,.02-6.59.14-13.89.09-20.73-.39-.34-.02-.68-.04-1.01-.07-6.83-.51-13.15-1.47-17.77-3.1-.33-.11-.66-.23-.97-.36-3.78-1.49-6.22-3.5-6.58-6.19-.66-4.96,2.37-13.41,2.37-13.41,0,0-7.37,2.41-4.37-8.59s13.73-132.01,31-180c17.27-48,31-64,61-72,0,0-13,16-18,130Z"/><rect width="16.26" height="1" x="255.29" y="372.04" transform="rotate(-87.87 263.446 372.542)"/><path d="M243.74 365.05c-.25 2.28-.68 5.6-1.08 8.82-.26 2.04-.53 4.12-.75 5.95-.34-.02-.68-.04-1.01-.07.23-1.84.5-3.95.76-6.01.41-3.21.84-6.53 1.08-8.79l1 .1zM224.54 361.83l-1.41 14.82c-.33-.11-.66-.23-.97-.36l1.38-14.56 1 .1z"/><path fill="#d4dde6" d="m304.58,288.1c-3.96,6.04,61-128,61-128,30-75,108-33,86,26l-58,146c-31,50-110,12-89-44Z"/><path fill="#7c4b33" d="m192.58,213.1s-34-37-52-44-34-19-36-12,17.65,26.94,17.65,26.94c0,0-65.74-7.94-70.2,3.06-4.46,11,10.54,13,10.54,13,0,0-14.37.69-12,8,2.37,7.31,9,8,9,8,0,0-6,3-6,10s7,8,7,8c0,0-5.38,4.57,1.31,11.29,6.69,6.71,87.69,36.71,87.69,36.71,30,15,71-42,43-69Z"/><path d="m159.99,285.09c-3.58,0-7.17-.78-10.64-2.51-3.26-1.2-81.13-30.09-87.83-36.82-2.43-2.44-3.61-4.89-3.51-7.3.08-1.88.93-3.28,1.56-4.06-2-.58-6.52-2.54-6.52-8.31,0-5.38,3.33-8.48,5.15-9.77-2.15-.64-6.33-2.56-8.12-8.07-.52-1.59-.35-3.03.51-4.26,1.72-2.49,5.9-3.6,8.83-4.08-2.56-.78-6.05-2.33-7.74-5.24-1.28-2.21-1.33-4.82-.13-7.78,4.23-10.44,59.21-4.7,69.27-3.56-4.11-4.31-18.56-20.05-16.75-26.38.3-1.05.9-1.78,1.79-2.17,3.16-1.4,9.42,1.74,18.07,6.07,5.09,2.55,10.87,5.43,16.84,7.76,17.87,6.95,50.65,42.45,52.19,44.12,6.79,6.55,10.05,15.36,9.42,25.46-.55,8.91-4.12,18.44-10.05,26.83-7.62,10.78-19.95,20.07-32.35,20.08Zm-80.19-103.26c-13.82,0-25.58,1.31-27.26,5.46-1.07,2.63-1.05,4.93.06,6.84,2.54,4.38,9.98,5.42,10.06,5.43l-.04,1.06c-.09,0-8.72.46-11.15,3.98-.66.96-.79,2.05-.37,3.32,2.23,6.87,8.29,7.61,8.55,7.63l1.8.2-1.61.81c-.23.12-5.71,2.95-5.71,9.52s6.27,7.43,6.54,7.47l1.16.17-.89.77s-1.76,1.54-1.85,4.02c-.08,2.09,1,4.27,3.2,6.48,6.53,6.56,86.69,36.29,87.5,36.59,15.01,7.5,32.12-3.66,41.7-17.2,10.81-15.28,15.23-36.95.75-50.92l-.02-.02c-.34-.37-34.12-36.99-51.8-43.86-6.02-2.34-11.82-5.24-16.93-7.8-7.76-3.88-14.47-7.23-17.17-6.04-.59.26-.98.75-1.19,1.49-1.57,5.5,12.12,20.94,17.52,26.42l1.07,1.09-1.52-.18c-9.51-1.15-27.19-2.74-42.38-2.74Z"/><path fill="#7c4b33" d="m228.58,223.1l124.85,32.83c74.15,25.17,36.15,115.17-24.67,94.52l-147.17-48.34c-47-24-33-103,47-79Z"/><path fill="#d4dde6" d="m318.86,245.48s3.72,54.62,10.72,74.62c7,20-16,26.59-16,26.59,0,0,21,17.41,44,13.41,23-4,50-32,38-67-12-35-46.45-44.23-76.72-47.62Z"/><path fill="#7c4b33" d="m223.58,230.1l-29-32s-16-38-18-48-12-13-19,5,8,37-1,40-80.11-13.44-95-6c-14,7-5,15-5,15,0,0-12,9,3,19,0,0-13,9,14,26,0,0-8,4,9,14,17,10,99,39,99,39,38,12,80-39,42-72Z"/><rect width="83.19" height="1.07" x="302.48" y="204.56" transform="rotate(-64.32 344.113 205.09)"/><rect width="148.56" height="1.07" x="347.3" y="263.06" transform="rotate(-68.32 421.544 263.592)"/><path d="M330.88 357.18c-10.38-4.12-17.56-10.02-17.64-10.08l-.78-.65.97-.28c.11-.03 10.89-3.21 15.18-11.51 2.18-4.21 2.34-9.06.47-14.4-6.94-19.84-10.71-74.21-10.75-74.76l1.06-.07c.04.54 3.8 54.77 10.7 74.47 1.97 5.63 1.79 10.76-.53 15.25-3.78 7.3-12.01 10.72-14.86 11.72 2.1 1.6 8.3 6.02 16.57 9.3l-.39.99zM340.1 289.16c-2.09-15.55-6.73-30.54-13.79-44.54l.95-.48c7.12 14.12 11.79 29.22 13.9 44.88l-1.06.14zM347.08 275.06c-2.68-10.66-7.66-20.87-14.41-29.54l.84-.66c6.84 8.79 11.89 19.14 14.6 29.94l-1.04.26zM354.28 361.51l-.96-.47c8.07-16.41 8.83-36.34 2.03-53.31l.99-.4c6.91 17.25 6.14 37.5-2.06 54.18zM359.62 359.03l-.81-.69c6.36-7.51 10.52-17.02 11.72-26.79l1.06.13c-1.23 9.97-5.48 19.68-11.97 27.35z"/><rect width="1.07" height="65.25" x="281.05" y="204.47" transform="rotate(-74.9 281.57 237.096)"/><rect width="1.07" height="117.95" x="236.55" y="261.12" transform="rotate(-71.72 237.07 320.094)"/><path d="m110.83,276.25c-14.38-5.75-23.98-10.02-28.52-12.7-7.5-4.41-11.25-8.3-11.14-11.55.05-1.43.83-2.37,1.45-2.89-10.95-7.01-16.57-13.55-16.7-19.44-.08-3.45,1.79-5.63,2.77-6.54-4.67-3.26-7.09-6.77-7.19-10.44-.12-4.36,3.05-7.56,4.28-8.64-.93-1-2.96-3.59-2.53-6.85.43-3.23,3.15-6.13,8.08-8.59,9.07-4.54,38.51-.37,62.17,2.98,15.78,2.23,29.4,4.16,32.9,3,3.69-1.23,2.87-5.49,1.1-12.92-1.83-7.7-4.12-17.27-.42-26.76,3.45-8.88,8.09-13.75,12.79-13.33,3.48.3,6.26,3.53,7.23,8.42,1.97,9.83,17.81,47.52,17.97,47.9l-.98.41c-.65-1.55-16.04-38.16-18.03-48.1-.87-4.34-3.33-7.31-6.28-7.57-4.17-.38-8.43,4.25-11.7,12.65-3.57,9.18-1.33,18.58.47,26.13,1.68,7.03,3,12.58-1.8,14.18-3.73,1.24-16.81-.61-33.38-2.95-23.51-3.33-52.78-7.46-61.55-3.08-4.6,2.3-7.12,4.91-7.5,7.77-.47,3.54,2.59,6.32,2.62,6.35l.48.43-.52.39s-4.46,3.42-4.33,8.15c.1,3.46,2.56,6.81,7.3,9.98l.65.43-.64.45c-.12.08-2.99,2.14-2.9,6.14.09,3.87,3.1,10.3,16.88,18.97l.8.51-.85.42c-.06.03-1.53.8-1.58,2.48-.06,1.94,1.74,5.36,10.62,10.58,4.5,2.65,14.05,6.89,28.38,12.62l-.4.99Z"/><rect width="1.07" height="49.34" x="79.05" y="186.43" transform="rotate(-72.3 79.58 211.098)"/><rect width="1.07" height="42.06" x="78.55" y="208.07" transform="rotate(-72 79.066 229.085)"/><rect width="1.07" height="26.57" x="85.05" y="239.81" transform="rotate(-70.2 85.586 253.098)"/><path fill="#52cc99" d="m322.7,785.76c-.02.36-.03.73-.05,1.09-.38,9.35-1.23,18.41-2.01,25.25-.11,1-.22,1.94-.33,2.84-.09.74-.25,1.44-.48,2.12-.12.37-.27.72-.44,1.07-1.67,3.56-5.28,5.97-9.4,5.97h-173.27c-3.5,0-6.33-2.68-6.67-5.97-.03-.36-.04-.71-.02-1.07.02-.24.05-.48.09-.72.26-1.48.56-2.89.91-4.24,4-15.81,13.89-22.96,26.53-26.7.34-.11.66-.21,1-.3.01,0,.02,0,.02,0,.31-.09.63-.17.94-.26,1.01-.26,2.03-.51,3.06-.74,9.61-2.13,16.36-5.98,22.25-10.32.33-.24.66-.49.99-.73,2.69-2.04,5.22-4.17,7.77-6.26.3-.25.6-.49.89-.73,1.19-.97,2.39-1.92,3.62-2.86.31-.24.63-.48.96-.71.17-.13.34-.26.52-.39,2.23-1.62,3.73-3.21,4.83-4.71.23-.33.45-.64.65-.96,3.53-5.44,2.72-9.66,15.52-10.68,17-1.36,18.89,24.23,55,22.35,21-1.1,32.29-7.51,38.06-12.69,2.84-2.56,7.36-.97,7.96,2.81,1.28,8.01,1.45,17.89,1.1,27.54Z"/><path fill="#87ddfd" d="M157.56 785.4c-12.64 3.74-22.53 10.89-26.53 26.7h49.55c-.67-4.82-1.9-8.83-3.52-12.17-4.35-8.95-11.54-13.07-18.48-14.83 0 0-.01.01-.02 0l-1 .3zM320.64 812.1c-.11 1-.22 1.94-.33 2.84-.09.74-.25 1.44-.48 2.12-.12.37-.27.72-.44 1.07-1.67 3.56-5.28 5.97-9.4 5.97h-173.27c-3.5 0-6.33-2.68-6.67-5.97-.03-.36-.04-.71-.02-1.07.02-.24.05-.48.09-.72.26-1.48.56-2.89.91-4.24h189.61z"/><path d="M319.83 817.06c-.12.37-.27.72-.44 1.07h-189.34c-.03-.36-.04-.71-.02-1.07h189.8zM157.56 785.4v.02c.15.03 15.11 3.44 18.99 14.68l.51-.17.5-.17c-1.69-4.91-5.65-9.12-11.45-12.19-2.62-1.39-5.05-2.25-6.59-2.73-.31.09-.63.17-.94.26 0 0-.01.01-.02 0l-1 .3zM223.67 767.64l-.86.65c-4.39-5.87-11.18-9.84-18.4-10.9.23-.33.45-.64.65-.96 7.31 1.22 14.15 5.26 18.61 11.21zM209.6 770.3l-.77.74c-3.07-3.19-6.74-5.87-10.73-7.84.31-.24.63-.48.96-.71 3.91 2 7.51 4.66 10.54 7.81zM203.54 773.28l-.8.7c-2.58-2.93-5.7-5.38-9.15-7.19.3-.25.6-.49.89-.73 3.41 1.85 6.5 4.3 9.06 7.22zM192.2 778.03l-.83.67c-1.74-2.15-4-3.84-6.54-4.92.33-.24.66-.49.99-.73 2.46 1.15 4.66 2.85 6.38 4.98zM322.7 785.76c-.02.36-.03.73-.05 1.09-5.26 1.06-10.27 3.52-14.25 7.1-5.19 4.66-8.68 11.24-9.64 18.15-.04.23-.07.46-.1.69l-1.06-.12c.02-.19.05-.38.08-.57.97-7.2 4.59-14.08 10-18.94 4.19-3.77 9.47-6.34 15.02-7.4z"/><path fill="#52cc99" d="m528.3,820.1c-.03,1.78-.48,3.47-1.27,4.96-.19.37-.4.73-.64,1.07-1.99,2.93-5.35,4.88-9.2,4.89l-187.05.08c-3.44,0-6.5-2.01-7.86-4.97-.16-.34-.3-.7-.41-1.07-.17-.56-.28-1.14-.33-1.74-.07-.94-.08-1.85-.02-2.75l.03-.47c1.1-12.71,14.74-20.83,25.03-24,.8-.24,1.59-.55,2.39-.9,5.57-2.46,11.21-7.44,17.49-13.38.28-.27.57-.54.87-.82,1.07-1.02,2.16-2.07,3.28-3.14.29-.27.58-.55.88-.84,3.07-2.92,6.3-5.97,9.76-8.97.3-.27.6-.54.91-.8,2.93-2.52,6.02-5,9.3-7.34.35-.27.7-.51,1.05-.76.02-.02.05-.03.07-.05,20-14,37.9,4.02,53,15,15.11,10.98,30,9,50-10,5.83-5.54,10.65-8.53,14.54-9.99,6.49-2.42,13.48,2.24,13.99,9.15l2.13,28.61h0s.08,1.09.08,1.09l1.95,26.12c.03.34.04.68.03,1.02Z"/><path fill="#87ddfd" d="m321.52,820.57h53.16s.03-.17.06-.47c.24-2.65.5-15.78-16.88-22.43-2.56-.98-5.5-1.82-8.89-2.47-.8.35-1.59.66-2.39.9-10.29,3.17-23.93,11.29-25.03,24l-.03.47Z"/><path fill="#87ddfd" d="m528.3,820.1c-.03,1.78-.48,3.47-1.27,4.96-.19.37-.4.73-.64,1.07-1.99,2.93-5.35,4.88-9.2,4.89l-187.05.08c-3.44,0-6.5-2.01-7.86-4.97-.16-.34-.3-.7-.41-1.07-.17-.56-.28-1.14-.33-1.74-.07-.94-.08-1.85-.02-2.75l.03-.47h206.75Z"/><path d="M321.87 825.06h205.16c-.19.37-.4.73-.64 1.07h-204.11c-.16-.34-.3-.7-.41-1.07zM375.2 820.68l-1.05-.21s.69-3.67-.99-8.2c-2.22-6-7.59-10.88-15.51-14.11l.4-.99c19.96 8.14 17.17 23.36 17.14 23.51zM410.16 771.38l-.81.7c-4.76-5.53-11.01-9.77-17.89-12.17.35-.27.7-.51 1.05-.76 6.78 2.5 12.94 6.75 17.65 12.23zM397.52 778.75l-.85.64c-3.89-5.24-9.29-9.2-15.42-11.34.3-.27.6-.54.91-.8 6.1 2.24 11.47 6.25 15.36 11.5zM391.99 790.4l-.79.72c-5.59-6.13-12.7-10.7-20.59-13.26.29-.27.58-.55.88-.84 7.85 2.65 14.92 7.26 20.5 13.38zM386.01 793.51l-.79.72c-5.14-5.59-11.6-9.86-18.76-12.41.28-.27.57-.54.87-.82 7.11 2.63 13.54 6.92 18.68 12.51zM526.32 792.96c-5.23 1.27-10.09 4.1-13.72 8.08-4.53 4.96-7.12 11.66-7.11 18.38h-1.07c-.01-6.98 2.69-13.95 7.39-19.1 3.81-4.17 8.92-7.14 14.43-8.44l.08 1.08z"/><rect width="121" height="1" x="189.08" y="823.1"/><rect width="101" height="1" x="406.08" y="830.1"/><rect width="1" height="39.12" x="526.08" y="771.54" transform="rotate(-4.4 526.457 790.829)"/><path d="m321.97,800.65l-.99-.13c2.36-17.75.87-36.05.86-36.24l1-.08c.02.18,1.51,18.59-.86,36.45Z"/><polygon points="364.66 591.82 330.64 452.01 299.03 433.51 299.53 432.65 331.51 451.37 331.56 451.57 365.63 591.59 364.66 591.82"/><rect width="1" height="171.45" x="215.58" y="566.07" transform="rotate(-2.75 215.737 650.68)"/><rect width="1.07" height="13.84" x="62.36" y="127.9" transform="rotate(-40.13 62.913 134.83)"/><rect width="1.07" height="22.49" x="106.13" y="97.93" transform="rotate(-13.9 106.622 109.156)"/><rect width="19.74" height="1.07" x="146.31" y="111.4" transform="rotate(-51.01 156.196 111.932)"/><path d="m365.08,44.92c-5.82-.98-14.06,4.31-13.5,15.18.55,10.62,0,31-26,32-16.75.64-17-14-17-30,0,0,18.42,6.53,36-8l2-13-3-1c-.18-2.69-5-10-5-10,0,0-5,2-27,4,0,0,8-16,29.5-14.5,26.15,1.82,24,25.32,24,25.32Z"/><path fill="#fff" d="m323.08,68.6l11-4s0,8-5,9-6-5-6-5Z"/><path d="M327.99 74.21c-.98 0-1.87-.27-2.66-.81-2.19-1.51-2.73-4.59-2.75-4.72l-.07-.41 12.06-4.39v.71c0 .34-.06 8.42-5.4 9.49-.41.08-.8.12-1.18.12zm-4.33-5.29c.21.82.83 2.68 2.24 3.66.85.59 1.89.76 3.08.53 3.7-.74 4.42-5.86 4.56-7.78l-9.88 3.59zM401.37 349.23c-6.15 0-9.42-1.31-11.49-2.14l.4-.99c4.58 1.83 15.3 6.12 51.61-8 22.34-8.69 28.16-6.59 28.39-6.5l-.39.99s-5.87-1.95-27.61 6.5c-20.57 8-33.07 10.13-40.91 10.13zM252.01 362.56c-3.21 0-6.59-.22-10.03-.76-9.43-1.49-12.77-3.75-14.98-5.25-1.79-1.22-2.78-1.89-5.84-1.42l-.16-1.05c3.47-.53 4.72.31 6.6 1.59 2.13 1.45 5.35 3.63 14.54 5.08 16.65 2.62 32.04-2.51 32.19-2.56l.34 1.01c-.12.04-10.07 3.37-22.66 3.37zM229.1 223.21l-1.04-.22c.1-.48 10.38-48.01 22.41-71.71l.95.48c-11.97 23.58-22.22 70.98-22.32 71.45zM287.78 234.05l-1.07-.05c.03-.71 3.43-70.94 7.62-95.09l1.05.18c-4.17 24.09-7.57 94.25-7.6 94.96zM350.29 161.04l-1.05-.18c5.63-32.34 21.09-65.34 21.25-65.67l.96.46c-.15.33-15.56 33.19-21.16 65.39zM430.56 753.88l-.55-.83c.12-.08 3.05-1.95 17-3.95 6.45-.92 14.22-.79 22.44-.65 9.52.16 19.37.33 27.35-1.23 14.18-2.76 13.07-14.76 13.01-15.27l.99-.11c.01.13 1.28 13.42-13.82 16.36-8.09 1.57-17.99 1.41-27.56 1.25-8.18-.14-15.91-.27-22.28.64-13.58 1.94-16.57 3.77-16.59 3.79zM303.37 750.11c-4.73 0-11.28-1.43-19.47-3.22-11.24-2.45-25.24-5.51-39.83-5.79l.02-1c14.69.29 28.73 3.35 40.02 5.82 8.21 1.79 15.3 3.35 19.95 3.18 10.64-.36 13.82-6.58 13.85-6.64l.9.44c-.14.28-3.48 6.82-14.71 7.2-.24 0-.48.01-.73.01zM349.11 411.1l-.05-1c54.32-2.96 122.71-22.29 123.39-22.48l.27.96c-.69.2-69.18 19.55-123.61 22.52zM360.41 375.71c-3.86 0-6.97-1.08-9.27-3.23-4.28-4-4.16-10.2-4.15-10.46l1 .03c0 .06-.11 6.02 3.84 9.71 2.5 2.33 6.09 3.29 10.7 2.85 15.31-1.48 66.95-9.49 67.47-9.57l.15.99c-.52.08-52.19 8.09-67.53 9.57-.76.07-1.5.11-2.21.11zM262.39 380.58c-4.41 0-9.52-.11-14.95-.45l.06-1c16.17 1.01 29.51 0 29.64 0 3.99-.99 6.64-2.94 7.79-5.77 2.46-6.06-2.62-14.32-2.68-14.4l.85-.53c.22.35 5.41 8.77 2.76 15.3-1.28 3.15-4.16 5.3-8.56 6.38-.14.02-6.14.47-14.92.47zM321.4 140.91c-8.9-.36-15.3-3.19-19.04-8.42-6.37-8.9-2.75-21.42-2.59-21.95l.96.29c-.04.12-3.64 12.58 2.45 21.08 3.55 4.96 9.7 7.65 18.27 7.99l-.04 1zM321.71 149.89c-7.58 0-12.94-1.71-16.5-3.52-6.01-3.06-8.26-6.96-8.35-7.12l.87-.49c.09.15 8.99 15.18 38.24 8.36l.23.97c-5.53 1.29-10.34 1.8-14.49 1.8zM313.61 231.33c-2.53-10.69-4.27-21.65-5.18-32.58l1-.08c.91 10.88 2.64 21.8 5.16 32.43l-.97.23z"/></g><g transform="translate(484.297 52.778) scale(1.07324)"><path fill="#FFF" d="m229.15,25.25H39.15c9.49,53.03,10.22,110.25,4.78,170.43-13.6-1.1-27.52-2.56-41.78-4.43-.96,31.22,9.04,46.88,30,47h179.79c9.9,0,18.25-7.41,19.44-17.24,8.66-71.49,9.28-137.65-2.23-195.76Z"/><path d="M32.14 238.75c-8.52-.05-15.36-2.68-20.31-7.82-7.34-7.61-10.76-20.96-10.18-39.7l.02-.55.55.07c70.58 9.25 134.97 9.25 196.86 0l.55-.08.03.55c.52 11.19 4.11 22.34 10.09 31.41l-.83.55c-5.98-9.07-9.61-20.18-10.23-31.36-61.65 9.16-125.79 9.16-196.04 0-.49 18.16 2.85 31.08 9.92 38.42 4.76 4.94 11.36 7.47 19.6 7.51v1zM237.72 137.18l-1-.06c3.03-49.47-7.96-110.17-8.07-110.78l.98-.18c.11.61 11.12 61.43 8.08 111.02z"/><circle cx="86.65" cy="85.75" r="15.5" fill="#FFF"/><circle cx="86.65" cy="85.75" r="9.56" fill="#52cc99"/><rect width="37" height="3.48" x="174.15" y="81.25" fill="#6CF"/><rect width="37" height="3.48" x="174.15" y="87.51" fill="#6CF"/><rect width="37" height="3.48" x="174.15" y="93.77" fill="#6CF"/><rect width="134" height="4" x="77.15" y="114.25" fill="#6CF"/><rect width="134" height="4" x="77.15" y="123.25" fill="#6CF"/><rect width="134" height="4" x="77.15" y="132.25" fill="#6CF"/><rect width="134" height="4" x="77.15" y="141.25" fill="#6CF"/><rect width="134" height="4" x="77.15" y="150.25" fill="#6CF"/><path d="M94.27 184.68c-2.54 0-4.97-.85-6.93-2.43-.32.13-.65.24-.98.35-4.42 1.42-9.09.76-12.82-1.81l.57-.82c3.48 2.39 7.83 3 11.95 1.68.15-.05.3-.1.44-.15-.3-.3-.59-.61-.86-.95-2.97-3.66-3.42-8.58-1.17-12.83 1.54-2.82 4.91-5.2 8.12-4.04 1.47.55 2.58 1.63 3.23 3.13.87 2.02.84 4.65-.1 6.88-1.29 3.57-3.92 6.44-7.35 8.11 2.49 1.83 5.66 2.38 8.88 1.47 2.95-.93 5.35-3.44 6.33-6.36-.45-.06-.88-.19-1.29-.4-.84-.45-1.45-1.31-1.59-2.24-.12-.79.11-1.53.65-2.08.73-.74 1.91-.89 2.75-.33.85.55.96 1.44.96 2.23 0 .59-.05 1.18-.16 1.76.38-.09.78-.25 1.19-.47 1.8-.96 3.95-.96 5.75-.01 5.85 3.09 13.58 1.95 17.97-2.66l.72.69c-4.69 4.92-12.94 6.15-19.17 2.85-1.48-.78-3.32-.78-4.81.01-.66.35-1.3.57-1.91.65-.99 3.38-3.68 6.25-7.1 7.33-1.09.31-2.19.46-3.27.46zm-3.37-20.29c-2.21 0-4.43 1.74-5.56 3.81-2.05 3.88-1.64 8.38 1.07 11.72.34.42.71.81 1.1 1.17 3.41-1.52 6.02-4.28 7.28-7.76.83-1.98.87-4.37.11-6.12-.55-1.26-1.44-2.13-2.65-2.58-.44-.16-.89-.23-1.34-.23zm12.04 8.11c-.32 0-.64.13-.88.37-.41.41-.43.9-.38 1.23.09.62.51 1.21 1.06 1.5.35.18.72.28 1.1.31.13-.61.2-1.23.2-1.85 0-.66-.08-1.12-.51-1.39-.18-.12-.39-.17-.6-.17zM180.24 185.75h-.15c-1.54 0-2.46-1.11-2.7-2.2-.28-1.28.33-2.5 1.5-3.04 2.09-.96 4.29-1.63 6.54-1.98-1.1-.52-2.22-1.13-3.12-2.01-1.07-1.04-2.03-2.78-1.48-4.56.42-1.36 1.68-2.49 3.39-3.02 1.46-.45 3.05-.44 4.45-.42l15.75.15c1.54.01 3.23.2 4.01 1.49.76 1.24.28 2.85-1.36 4.54-1.25 1.29-2.61 2.48-4.06 3.57.95-.14 1.92-.23 2.9-.15 1.58.14 3.12.91 4.02 2.02.62.76.88 1.62.78 2.5l-.99-.12c.07-.61-.11-1.2-.56-1.75-.72-.89-2.03-1.54-3.33-1.65-1.34-.12-2.66.12-4.06.38-.23.04-.47.08-.71.13-6.03 3.91-13.4 6.12-20.82 6.12zm8.86-6.5c-3.34 0-6.7.74-9.79 2.17-.91.42-1.08 1.3-.94 1.92.14.65.68 1.41 1.73 1.41h.14c6.48 0 12.92-1.73 18.41-4.83-1.74.08-3.48-.13-5.16-.33-1.06-.13-2.15-.26-3.22-.31-.39-.02-.78-.03-1.17-.03zm0-1c.41 0 .81.01 1.22.03 1.1.06 2.21.19 3.29.32 1.83.22 3.73.45 5.56.28.5-.04 1.01-.12 1.52-.21 2.07-1.36 3.98-2.92 5.66-4.67.74-.77 1.89-2.23 1.22-3.32-.53-.87-1.9-1-3.17-1.01l-15.75-.15c-1.39-.01-2.83-.03-4.15.38-1.37.42-2.41 1.32-2.73 2.35-.34 1.11.14 2.5 1.22 3.55 1.05 1.01 2.46 1.65 3.82 2.26l-.14.3c.8-.08 1.61-.12 2.42-.12zM90.93 57.42c-4.33 0-7.54-3.34-7.54-7.56v-.04c0-4.18 3.15-7.6 7.66-7.6 2.77 0 4.43.92 5.79 2.27l-2.06 2.37c-1.13-1.03-2.29-1.66-3.76-1.66-2.48 0-4.26 2.06-4.26 4.58v.04c0 2.52 1.74 4.62 4.26 4.62 1.68 0 2.71-.67 3.86-1.72l2.06 2.08c-1.51 1.62-3.19 2.62-6.03 2.62zM106.26 57.42c-4.54 0-7.79-3.38-7.79-7.56v-.04c0-4.18 3.3-7.6 7.83-7.6s7.79 3.38 7.79 7.56v.04c0 4.18-3.3 7.6-7.83 7.6zm4.45-7.6c0-2.52-1.85-4.62-4.45-4.62s-4.41 2.06-4.41 4.58v.04c0 2.52 1.85 4.62 4.45 4.62s4.41-2.06 4.41-4.58v-.04zM127.28 57.17l-7.12-9.34v9.34h-3.19v-14.7h2.98l6.89 9.05v-9.05h3.19v14.7h-2.75zM140.22 45.45v11.72h-3.23v-11.72h-4.47v-2.98h12.18v2.98h-4.47zM156.09 57.17l-3.15-4.7h-2.54v4.7h-3.23v-14.7h6.72c3.46 0 5.54 1.83 5.54 4.85v.04c0 2.37-1.28 3.86-3.15 4.56l3.59 5.25h-3.78zm.06-9.68c0-1.39-.97-2.1-2.54-2.1h-3.21v4.22h3.28c1.57 0 2.48-.84 2.48-2.08v-.04zM173.29 57.17l-1.34-3.3h-6.21l-1.34 3.3h-3.3l6.3-14.8h2.98l6.3 14.8h-3.38zm-4.45-10.92l-1.95 4.77h3.91l-1.95-4.77zM184.89 57.42c-4.33 0-7.54-3.34-7.54-7.56v-.04c0-4.18 3.15-7.6 7.66-7.6 2.77 0 4.43.92 5.79 2.27l-2.06 2.37c-1.13-1.03-2.29-1.66-3.76-1.66-2.48 0-4.26 2.06-4.26 4.58v.04c0 2.52 1.74 4.62 4.26 4.62 1.68 0 2.71-.67 3.86-1.72l2.06 2.08c-1.51 1.62-3.19 2.62-6.03 2.62zM200.15 45.45v11.72h-3.23v-11.72h-4.47v-2.98h12.18v2.98h-4.47z"/></g></svg>